<?xml version="1.0" encoding="UTF-8"?>
<svg xmlns="http://www.w3.org/2000/svg"
     viewBox="-63.0000 -32.9380 126.0000 136.1960"
     width="600" height="648">
<metadata><cct>{"cct":{"family":"Imperial","pitch":"L","teeth":"20","bore":"8","print_extra":"0","clearance_preset":"STANDARD","backlash_preset":"TIGHT"},"tool":"pulleys","v":"2.0.0","sv":1}</cct></metadata>
  <title>Imperial L 20T Pulley Profile — cheapcadtools.com</title>
  <rect x="-63.0000" y="-32.9380" width="126.0000" height="136.1960" fill="#ffffff"/>
  <path d="M -3.2680 29.7591 L -3.0919 29.7642 L -2.9172 29.7411 L -2.7485 29.6904 L -2.5902 29.6134 L -2.4460 29.5120 L -2.3196 29.3889 L -2.2137 29.2471 L -2.1308 29.0902 L -1.6738 28.0010 L -1.5951 27.8400 L -1.4958 27.6932 L -1.3783 27.5640 L -1.2455 27.4550 L -1.1003 27.3686 L -0.9459 27.3067 L -0.7854 27.2706 L -0.6223 27.2609 L 0.6223 27.2609 L 0.7854 27.2706 L 0.9459 27.3067 L 1.1003 27.3686 L 1.2455 27.4550 L 1.3783 27.5640 L 1.4958 27.6932 L 1.5951 27.8400 L 1.6738 28.0010 L 2.2137 29.2471 L 2.3196 29.3889 L 2.4460 29.5120 L 2.5902 29.6134 L 2.7485 29.6904 L 2.9172 29.7411 L 3.0919 29.7642 L 3.2680 29.7591 A 29.9380 29.9380 0 0 1 6.0880 29.3125 L 6.0880 29.3125 L 6.2571 29.2629 L 6.4161 29.1870 L 6.5608 29.0866 L 6.6876 28.9644 L 6.7934 28.8234 L 6.8756 28.6673 L 6.9325 28.4997 L 6.9629 28.3249 L 7.0609 27.1478 L 7.0860 26.9703 L 7.1351 26.8000 L 7.2068 26.6408 L 7.2995 26.4961 L 7.4109 26.3691 L 7.5387 26.2625 L 7.6801 26.1786 L 7.8323 26.1190 L 9.0159 25.7344 L 9.1740 25.6931 L 9.3378 25.6779 L 9.5038 25.6891 L 9.6686 25.7264 L 9.8286 25.7890 L 9.9803 25.8756 L 10.1201 25.9845 L 10.2447 26.1133 L 11.1432 27.1316 L 11.2877 27.2337 L 11.4460 27.3117 L 11.6144 27.3636 L 11.7889 27.3879 L 11.9650 27.3840 L 12.1382 27.3520 L 12.3042 27.2927 A 29.9380 29.9380 0 0 1 14.8481 25.9965 L 14.8481 25.9965 L 14.9936 25.8971 L 15.1213 25.7758 L 15.2280 25.6356 L 15.3108 25.4802 L 15.3678 25.3134 L 15.3978 25.1395 L 15.4001 24.9626 L 15.3750 24.7869 L 15.1045 23.6371 L 15.0735 23.4606 L 15.0675 23.2835 L 15.0866 23.1099 L 15.1300 22.9437 L 15.1967 22.7884 L 15.2853 22.6476 L 15.3938 22.5240 L 15.5201 22.4203 L 16.5270 21.6888 L 16.6647 21.6007 L 16.8157 21.5356 L 16.9771 21.4949 L 17.1453 21.4795 L 17.3168 21.4895 L 17.4878 21.5251 L 17.6544 21.5854 L 17.8127 21.6695 L 18.9820 22.3602 L 19.1509 22.4127 L 19.3256 22.4380 L 19.5018 22.4353 L 19.6752 22.4045 L 19.8415 22.3464 L 19.9964 22.2624 L 20.1359 22.1547 A 29.9380 29.9380 0 0 1 22.1547 20.1359 L 22.1547 20.1359 L 22.2624 19.9964 L 22.3464 19.8415 L 22.4045 19.6752 L 22.4353 19.5018 L 22.4380 19.3256 L 22.4127 19.1509 L 22.3602 18.9820 L 22.2821 18.8226 L 21.6695 17.8127 L 21.5854 17.6544 L 21.5251 17.4878 L 21.4895 17.3168 L 21.4795 17.1453 L 21.4949 16.9771 L 21.5356 16.8157 L 21.6007 16.6647 L 21.6888 16.5270 L 22.4203 15.5201 L 22.5240 15.3938 L 22.6476 15.2853 L 22.7884 15.1967 L 22.9437 15.1300 L 23.1099 15.0866 L 23.2835 15.0675 L 23.4606 15.0735 L 23.6371 15.1045 L 24.9626 15.4001 L 25.1395 15.3978 L 25.3134 15.3678 L 25.4802 15.3108 L 25.6356 15.2280 L 25.7758 15.1213 L 25.8971 14.9936 L 25.9965 14.8481 A 29.9380 29.9380 0 0 1 27.2927 12.3042 L 27.2927 12.3042 L 27.3520 12.1382 L 27.3840 11.9650 L 27.3879 11.7889 L 27.3636 11.6144 L 27.3117 11.4460 L 27.2337 11.2877 L 27.1316 11.1432 L 27.0080 11.0159 L 26.1133 10.2447 L 25.9845 10.1201 L 25.8756 9.9803 L 25.7890 9.8286 L 25.7264 9.6686 L 25.6891 9.5038 L 25.6779 9.3378 L 25.6931 9.1740 L 25.7344 9.0159 L 26.1190 7.8323 L 26.1786 7.6801 L 26.2625 7.5387 L 26.3691 7.4109 L 26.4961 7.2995 L 26.6408 7.2068 L 26.8000 7.1351 L 26.9703 7.0860 L 27.1478 7.0609 L 28.4997 6.9325 L 28.6673 6.8756 L 28.8234 6.7934 L 28.9644 6.6876 L 29.0866 6.5608 L 29.1870 6.4161 L 29.2629 6.2571 L 29.3125 6.0880 A 29.9380 29.9380 0 0 1 29.7591 3.2680 L 29.7591 3.2680 L 29.7642 3.0919 L 29.7411 2.9172 L 29.6904 2.7485 L 29.6134 2.5902 L 29.5120 2.4460 L 29.3889 2.3196 L 29.2471 2.2137 L 29.0902 2.1308 L 28.0010 1.6738 L 27.8400 1.5951 L 27.6932 1.4958 L 27.5640 1.3783 L 27.4550 1.2455 L 27.3686 1.1003 L 27.3067 0.9459 L 27.2706 0.7854 L 27.2609 0.6223 L 27.2609 -0.6223 L 27.2706 -0.7854 L 27.3067 -0.9459 L 27.3686 -1.1003 L 27.4550 -1.2455 L 27.5640 -1.3783 L 27.6932 -1.4958 L 27.8400 -1.5951 L 28.0010 -1.6738 L 29.2471 -2.2137 L 29.3889 -2.3196 L 29.5120 -2.4460 L 29.6134 -2.5902 L 29.6904 -2.7485 L 29.7411 -2.9172 L 29.7642 -3.0919 L 29.7591 -3.2680 A 29.9380 29.9380 0 0 1 29.3125 -6.0880 L 29.3125 -6.0880 L 29.2629 -6.2571 L 29.1870 -6.4161 L 29.0866 -6.5608 L 28.9644 -6.6876 L 28.8234 -6.7934 L 28.6673 -6.8756 L 28.4997 -6.9325 L 28.3249 -6.9629 L 27.1478 -7.0609 L 26.9703 -7.0860 L 26.8000 -7.1351 L 26.6408 -7.2068 L 26.4961 -7.2995 L 26.3691 -7.4109 L 26.2625 -7.5387 L 26.1786 -7.6801 L 26.1190 -7.8323 L 25.7344 -9.0159 L 25.6931 -9.1740 L 25.6779 -9.3378 L 25.6891 -9.5038 L 25.7264 -9.6686 L 25.7890 -9.8286 L 25.8756 -9.9803 L 25.9845 -10.1201 L 26.1133 -10.2447 L 27.1316 -11.1432 L 27.2337 -11.2877 L 27.3117 -11.4460 L 27.3636 -11.6144 L 27.3879 -11.7889 L 27.3840 -11.9650 L 27.3520 -12.1382 L 27.2927 -12.3042 A 29.9380 29.9380 0 0 1 25.9965 -14.8481 L 25.9965 -14.8481 L 25.8971 -14.9936 L 25.7758 -15.1213 L 25.6356 -15.2280 L 25.4802 -15.3108 L 25.3134 -15.3678 L 25.1395 -15.3978 L 24.9626 -15.4001 L 24.7869 -15.3750 L 23.6371 -15.1045 L 23.4606 -15.0735 L 23.2835 -15.0675 L 23.1099 -15.0866 L 22.9437 -15.1300 L 22.7884 -15.1967 L 22.6476 -15.2853 L 22.5240 -15.3938 L 22.4203 -15.5201 L 21.6888 -16.5270 L 21.6007 -16.6647 L 21.5356 -16.8157 L 21.4949 -16.9771 L 21.4795 -17.1453 L 21.4895 -17.3168 L 21.5251 -17.4878 L 21.5854 -17.6544 L 21.6695 -17.8127 L 22.3602 -18.9820 L 22.4127 -19.1509 L 22.4380 -19.3256 L 22.4353 -19.5018 L 22.4045 -19.6752 L 22.3464 -19.8415 L 22.2624 -19.9964 L 22.1547 -20.1359 A 29.9380 29.9380 0 0 1 20.1359 -22.1547 L 20.1359 -22.1547 L 19.9964 -22.2624 L 19.8415 -22.3464 L 19.6752 -22.4045 L 19.5018 -22.4353 L 19.3256 -22.4380 L 19.1509 -22.4127 L 18.9820 -22.3602 L 18.8226 -22.2821 L 17.8127 -21.6695 L 17.6544 -21.5854 L 17.4878 -21.5251 L 17.3168 -21.4895 L 17.1453 -21.4795 L 16.9771 -21.4949 L 16.8157 -21.5356 L 16.6647 -21.6007 L 16.5270 -21.6888 L 15.5201 -22.4203 L 15.3938 -22.5240 L 15.2853 -22.6476 L 15.1967 -22.7884 L 15.1300 -22.9437 L 15.0866 -23.1099 L 15.0675 -23.2835 L 15.0735 -23.4606 L 15.1045 -23.6371 L 15.4001 -24.9626 L 15.3978 -25.1395 L 15.3678 -25.3134 L 15.3108 -25.4802 L 15.2280 -25.6356 L 15.1213 -25.7758 L 14.9936 -25.8971 L 14.8481 -25.9965 A 29.9380 29.9380 0 0 1 12.3042 -27.2927 L 12.3042 -27.2927 L 12.1382 -27.3520 L 11.9650 -27.3840 L 11.7889 -27.3879 L 11.6144 -27.3636 L 11.4460 -27.3117 L 11.2877 -27.2337 L 11.1432 -27.1316 L 11.0159 -27.0080 L 10.2447 -26.1133 L 10.1201 -25.9845 L 9.9803 -25.8756 L 9.8286 -25.7890 L 9.6686 -25.7264 L 9.5038 -25.6891 L 9.3378 -25.6779 L 9.1740 -25.6931 L 9.0159 -25.7344 L 7.8323 -26.1190 L 7.6801 -26.1786 L 7.5387 -26.2625 L 7.4109 -26.3691 L 7.2995 -26.4961 L 7.2068 -26.6408 L 7.1351 -26.8000 L 7.0860 -26.9703 L 7.0609 -27.1478 L 6.9325 -28.4997 L 6.8756 -28.6673 L 6.7934 -28.8234 L 6.6876 -28.9644 L 6.5608 -29.0866 L 6.4161 -29.1870 L 6.2571 -29.2629 L 6.0880 -29.3125 A 29.9380 29.9380 0 0 1 3.2680 -29.7591 L 3.2680 -29.7591 L 3.0919 -29.7642 L 2.9172 -29.7411 L 2.7485 -29.6904 L 2.5902 -29.6134 L 2.4460 -29.5120 L 2.3196 -29.3889 L 2.2137 -29.2471 L 2.1308 -29.0902 L 1.6738 -28.0010 L 1.5951 -27.8400 L 1.4958 -27.6932 L 1.3783 -27.5640 L 1.2455 -27.4550 L 1.1003 -27.3686 L 0.9459 -27.3067 L 0.7854 -27.2706 L 0.6223 -27.2609 L -0.6223 -27.2609 L -0.7854 -27.2706 L -0.9459 -27.3067 L -1.1003 -27.3686 L -1.2455 -27.4550 L -1.3783 -27.5640 L -1.4958 -27.6932 L -1.5951 -27.8400 L -1.6738 -28.0010 L -2.2137 -29.2471 L -2.3196 -29.3889 L -2.4460 -29.5120 L -2.5902 -29.6134 L -2.7485 -29.6904 L -2.9172 -29.7411 L -3.0919 -29.7642 L -3.2680 -29.7591 A 29.9380 29.9380 0 0 1 -6.0880 -29.3125 L -6.0880 -29.3125 L -6.2571 -29.2629 L -6.4161 -29.1870 L -6.5608 -29.0866 L -6.6876 -28.9644 L -6.7934 -28.8234 L -6.8756 -28.6673 L -6.9325 -28.4997 L -6.9629 -28.3249 L -7.0609 -27.1478 L -7.0860 -26.9703 L -7.1351 -26.8000 L -7.2068 -26.6408 L -7.2995 -26.4961 L -7.4109 -26.3691 L -7.5387 -26.2625 L -7.6801 -26.1786 L -7.8323 -26.1190 L -9.0159 -25.7344 L -9.1740 -25.6931 L -9.3378 -25.6779 L -9.5038 -25.6891 L -9.6686 -25.7264 L -9.8286 -25.7890 L -9.9803 -25.8756 L -10.1201 -25.9845 L -10.2447 -26.1133 L -11.1432 -27.1316 L -11.2877 -27.2337 L -11.4460 -27.3117 L -11.6144 -27.3636 L -11.7889 -27.3879 L -11.9650 -27.3840 L -12.1382 -27.3520 L -12.3042 -27.2927 A 29.9380 29.9380 0 0 1 -14.8481 -25.9965 L -14.8481 -25.9965 L -14.9936 -25.8971 L -15.1213 -25.7758 L -15.2280 -25.6356 L -15.3108 -25.4802 L -15.3678 -25.3134 L -15.3978 -25.1395 L -15.4001 -24.9626 L -15.3750 -24.7869 L -15.1045 -23.6371 L -15.0735 -23.4606 L -15.0675 -23.2835 L -15.0866 -23.1099 L -15.1300 -22.9437 L -15.1967 -22.7884 L -15.2853 -22.6476 L -15.3938 -22.5240 L -15.5201 -22.4203 L -16.5270 -21.6888 L -16.6647 -21.6007 L -16.8157 -21.5356 L -16.9771 -21.4949 L -17.1453 -21.4795 L -17.3168 -21.4895 L -17.4878 -21.5251 L -17.6544 -21.5854 L -17.8127 -21.6695 L -18.9820 -22.3602 L -19.1509 -22.4127 L -19.3256 -22.4380 L -19.5018 -22.4353 L -19.6752 -22.4045 L -19.8415 -22.3464 L -19.9964 -22.2624 L -20.1359 -22.1547 A 29.9380 29.9380 0 0 1 -22.1547 -20.1359 L -22.1547 -20.1359 L -22.2624 -19.9964 L -22.3464 -19.8415 L -22.4045 -19.6752 L -22.4353 -19.5018 L -22.4380 -19.3256 L -22.4127 -19.1509 L -22.3602 -18.9820 L -22.2821 -18.8226 L -21.6695 -17.8127 L -21.5854 -17.6544 L -21.5251 -17.4878 L -21.4895 -17.3168 L -21.4795 -17.1453 L -21.4949 -16.9771 L -21.5356 -16.8157 L -21.6007 -16.6647 L -21.6888 -16.5270 L -22.4203 -15.5201 L -22.5240 -15.3938 L -22.6476 -15.2853 L -22.7884 -15.1967 L -22.9437 -15.1300 L -23.1099 -15.0866 L -23.2835 -15.0675 L -23.4606 -15.0735 L -23.6371 -15.1045 L -24.9626 -15.4001 L -25.1395 -15.3978 L -25.3134 -15.3678 L -25.4802 -15.3108 L -25.6356 -15.2280 L -25.7758 -15.1213 L -25.8971 -14.9936 L -25.9965 -14.8481 A 29.9380 29.9380 0 0 1 -27.2927 -12.3042 L -27.2927 -12.3042 L -27.3520 -12.1382 L -27.3840 -11.9650 L -27.3879 -11.7889 L -27.3636 -11.6144 L -27.3117 -11.4460 L -27.2337 -11.2877 L -27.1316 -11.1432 L -27.0080 -11.0159 L -26.1133 -10.2447 L -25.9845 -10.1201 L -25.8756 -9.9803 L -25.7890 -9.8286 L -25.7264 -9.6686 L -25.6891 -9.5038 L -25.6779 -9.3378 L -25.6931 -9.1740 L -25.7344 -9.0159 L -26.1190 -7.8323 L -26.1786 -7.6801 L -26.2625 -7.5387 L -26.3691 -7.4109 L -26.4961 -7.2995 L -26.6408 -7.2068 L -26.8000 -7.1351 L -26.9703 -7.0860 L -27.1478 -7.0609 L -28.4997 -6.9325 L -28.6673 -6.8756 L -28.8234 -6.7934 L -28.9644 -6.6876 L -29.0866 -6.5608 L -29.1870 -6.4161 L -29.2629 -6.2571 L -29.3125 -6.0880 A 29.9380 29.9380 0 0 1 -29.7591 -3.2680 L -29.7591 -3.2680 L -29.7642 -3.0919 L -29.7411 -2.9172 L -29.6904 -2.7485 L -29.6134 -2.5902 L -29.5120 -2.4460 L -29.3889 -2.3196 L -29.2471 -2.2137 L -29.0902 -2.1308 L -28.0010 -1.6738 L -27.8400 -1.5951 L -27.6932 -1.4958 L -27.5640 -1.3783 L -27.4550 -1.2455 L -27.3686 -1.1003 L -27.3067 -0.9459 L -27.2706 -0.7854 L -27.2609 -0.6223 L -27.2609 0.6223 L -27.2706 0.7854 L -27.3067 0.9459 L -27.3686 1.1003 L -27.4550 1.2455 L -27.5640 1.3783 L -27.6932 1.4958 L -27.8400 1.5951 L -28.0010 1.6738 L -29.2471 2.2137 L -29.3889 2.3196 L -29.5120 2.4460 L -29.6134 2.5902 L -29.6904 2.7485 L -29.7411 2.9172 L -29.7642 3.0919 L -29.7591 3.2680 A 29.9380 29.9380 0 0 1 -29.3125 6.0880 L -29.3125 6.0880 L -29.2629 6.2571 L -29.1870 6.4161 L -29.0866 6.5608 L -28.9644 6.6876 L -28.8234 6.7934 L -28.6673 6.8756 L -28.4997 6.9325 L -28.3249 6.9629 L -27.1478 7.0609 L -26.9703 7.0860 L -26.8000 7.1351 L -26.6408 7.2068 L -26.4961 7.2995 L -26.3691 7.4109 L -26.2625 7.5387 L -26.1786 7.6801 L -26.1190 7.8323 L -25.7344 9.0159 L -25.6931 9.1740 L -25.6779 9.3378 L -25.6891 9.5038 L -25.7264 9.6686 L -25.7890 9.8286 L -25.8756 9.9803 L -25.9845 10.1201 L -26.1133 10.2447 L -27.1316 11.1432 L -27.2337 11.2877 L -27.3117 11.4460 L -27.3636 11.6144 L -27.3879 11.7889 L -27.3840 11.9650 L -27.3520 12.1382 L -27.2927 12.3042 A 29.9380 29.9380 0 0 1 -25.9965 14.8481 L -25.9965 14.8481 L -25.8971 14.9936 L -25.7758 15.1213 L -25.6356 15.2280 L -25.4802 15.3108 L -25.3134 15.3678 L -25.1395 15.3978 L -24.9626 15.4001 L -24.7869 15.3750 L -23.6371 15.1045 L -23.4606 15.0735 L -23.2835 15.0675 L -23.1099 15.0866 L -22.9437 15.1300 L -22.7884 15.1967 L -22.6476 15.2853 L -22.5240 15.3938 L -22.4203 15.5201 L -21.6888 16.5270 L -21.6007 16.6647 L -21.5356 16.8157 L -21.4949 16.9771 L -21.4795 17.1453 L -21.4895 17.3168 L -21.5251 17.4878 L -21.5854 17.6544 L -21.6695 17.8127 L -22.3602 18.9820 L -22.4127 19.1509 L -22.4380 19.3256 L -22.4353 19.5018 L -22.4045 19.6752 L -22.3464 19.8415 L -22.2624 19.9964 L -22.1547 20.1359 A 29.9380 29.9380 0 0 1 -20.1359 22.1547 L -20.1359 22.1547 L -19.9964 22.2624 L -19.8415 22.3464 L -19.6752 22.4045 L -19.5018 22.4353 L -19.3256 22.4380 L -19.1509 22.4127 L -18.9820 22.3602 L -18.8226 22.2821 L -17.8127 21.6695 L -17.6544 21.5854 L -17.4878 21.5251 L -17.3168 21.4895 L -17.1453 21.4795 L -16.9771 21.4949 L -16.8157 21.5356 L -16.6647 21.6007 L -16.5270 21.6888 L -15.5201 22.4203 L -15.3938 22.5240 L -15.2853 22.6476 L -15.1967 22.7884 L -15.1300 22.9437 L -15.0866 23.1099 L -15.0675 23.2835 L -15.0735 23.4606 L -15.1045 23.6371 L -15.4001 24.9626 L -15.3978 25.1395 L -15.3678 25.3134 L -15.3108 25.4802 L -15.2280 25.6356 L -15.1213 25.7758 L -14.9936 25.8971 L -14.8481 25.9965 A 29.9380 29.9380 0 0 1 -12.3042 27.2927 L -12.3042 27.2927 L -12.1382 27.3520 L -11.9650 27.3840 L -11.7889 27.3879 L -11.6144 27.3636 L -11.4460 27.3117 L -11.2877 27.2337 L -11.1432 27.1316 L -11.0159 27.0080 L -10.2447 26.1133 L -10.1201 25.9845 L -9.9803 25.8756 L -9.8286 25.7890 L -9.6686 25.7264 L -9.5038 25.6891 L -9.3378 25.6779 L -9.1740 25.6931 L -9.0159 25.7344 L -7.8323 26.1190 L -7.6801 26.1786 L -7.5387 26.2625 L -7.4109 26.3691 L -7.2995 26.4961 L -7.2068 26.6408 L -7.1351 26.8000 L -7.0860 26.9703 L -7.0609 27.1478 L -6.9325 28.4997 L -6.8756 28.6673 L -6.7934 28.8234 L -6.6876 28.9644 L -6.5608 29.0866 L -6.4161 29.1870 L -6.2571 29.2629 L -6.0880 29.3125 A 29.9380 29.9380 0 0 1 -3.2680 29.7591 Z"
        fill="none" stroke="#1a1a1a" stroke-width="0.240"
        stroke-linejoin="round" stroke-linecap="round"/>
  <circle cx="0" cy="0" r="4.0000" fill="none" stroke="#1a1a1a" stroke-width="0.240"/>
  
  
  
  <line x1="-60.0000" y1="33.4380" x2="60.0000" y2="33.4380" stroke="#cccccc" stroke-width="0.25"/>
  <text x="0.0000" y="38.9380" font-family="Helvetica, Arial, sans-serif" font-size="4.0" font-weight="bold" fill="#0078d4" text-anchor="middle">Imperial L — 20 Teeth</text>
  <text x="-56.0000" y="45.2380" font-family="Helvetica, Arial, sans-serif" font-size="2.8" font-weight="normal" fill="#555555" text-anchor="start">Belt Family</text>
  <text x="-14.0000" y="45.2380" font-family="Helvetica, Arial, sans-serif" font-size="2.8" font-weight="bold" fill="#1a1a1a" text-anchor="start">Imperial</text>
  <text x="-56.0000" y="49.4380" font-family="Helvetica, Arial, sans-serif" font-size="2.8" font-weight="normal" fill="#555555" text-anchor="start">Pitch</text>
  <text x="-14.0000" y="49.4380" font-family="Helvetica, Arial, sans-serif" font-size="2.8" font-weight="bold" fill="#1a1a1a" text-anchor="start">L  (9.525 mm)</text>
  <text x="-56.0000" y="53.6380" font-family="Helvetica, Arial, sans-serif" font-size="2.8" font-weight="normal" fill="#555555" text-anchor="start">Number of Teeth</text>
  <text x="-14.0000" y="53.6380" font-family="Helvetica, Arial, sans-serif" font-size="2.8" font-weight="bold" fill="#1a1a1a" text-anchor="start">20</text>
  <text x="-56.0000" y="57.8380" font-family="Helvetica, Arial, sans-serif" font-size="2.8" font-weight="normal" fill="#555555" text-anchor="start">Outer Diameter</text>
  <text x="-14.0000" y="57.8380" font-family="Helvetica, Arial, sans-serif" font-size="2.8" font-weight="bold" fill="#1a1a1a" text-anchor="start">59.876 mm</text>
  <text x="-56.0000" y="62.0380" font-family="Helvetica, Arial, sans-serif" font-size="2.8" font-weight="normal" fill="#555555" text-anchor="start">Pitch Diameter</text>
  <text x="-14.0000" y="62.0380" font-family="Helvetica, Arial, sans-serif" font-size="2.8" font-weight="bold" fill="#1a1a1a" text-anchor="start">60.638 mm</text>
  <text x="-56.0000" y="66.2380" font-family="Helvetica, Arial, sans-serif" font-size="2.8" font-weight="normal" fill="#555555" text-anchor="start">Bore Diameter</text>
  <text x="-14.0000" y="66.2380" font-family="Helvetica, Arial, sans-serif" font-size="2.8" font-weight="bold" fill="#1a1a1a" text-anchor="start">8.000 mm</text>
  <text x="-56.0000" y="70.4380" font-family="Helvetica, Arial, sans-serif" font-size="2.8" font-weight="normal" fill="#555555" text-anchor="start">Tooth Clearance</text>
  <text x="-14.0000" y="70.4380" font-family="Helvetica, Arial, sans-serif" font-size="2.8" font-weight="bold" fill="#1a1a1a" text-anchor="start">Standard  (+0.000 mm)</text>
  <text x="-56.0000" y="74.6380" font-family="Helvetica, Arial, sans-serif" font-size="2.8" font-weight="normal" fill="#555555" text-anchor="start">Backlash</text>
  <text x="-14.0000" y="74.6380" font-family="Helvetica, Arial, sans-serif" font-size="2.8" font-weight="bold" fill="#1a1a1a" text-anchor="start">Tight  (-0.340 mm)</text>
  <text x="-56.0000" y="78.8380" font-family="Helvetica, Arial, sans-serif" font-size="2.8" font-weight="normal" fill="#555555" text-anchor="start">Print Extra</text>
  <text x="-14.0000" y="78.8380" font-family="Helvetica, Arial, sans-serif" font-size="2.8" font-weight="bold" fill="#1a1a1a" text-anchor="start">0.000 mm</text>
  <text x="-56.0000" y="85.1380" font-family="Helvetica, Arial, sans-serif" font-size="2.8" font-weight="normal" fill="#555555" text-anchor="start">Standard</text>
  <text x="-14.0000" y="85.1380" font-family="Helvetica, Arial, sans-serif" font-size="2.3" font-weight="normal" fill="#1a1a1a" text-anchor="start">ISO 5294:2012 — trapezoidal (ANSI/RMA IP-24)</text>
  <line x1="-60.0000" y1="92.6980" x2="60.0000" y2="92.6980" stroke="#cccccc" stroke-width="0.2"/>
  <text x="0.0000" y="96.0580" font-family="Helvetica, Arial, sans-serif" font-size="2.3" font-weight="normal" fill="#0078d4" text-anchor="middle">Generated by Timing Pulley Generator  ·  cheapcadtools.com</text>
</svg>